<?xml version="1.0" standalone="no"?>
<!DOCTYPE svg PUBLIC "-//W3C//DTD SVG 20010904//EN"
 "http://www.w3.org/TR/2001/REC-SVG-20010904/DTD/svg10.dtd">
<svg version="1.0" xmlns="http://www.w3.org/2000/svg"
 width="12338.000000pt" height="7391.000000pt" viewBox="0 0 12338.000000 7391.000000"
 preserveAspectRatio="xMidYMid meet">
<metadata>
Created by potrace 1.16, written by Peter Selinger 2001-2019
</metadata>
<g transform="translate(0.000000,7391.000000) scale(0.100000,-0.100000)"
fill="#000000" stroke="none">
<path d="M26865 71620 c-192 -4 -366 -10 -385 -13 -19 -4 -154 -11 -300 -17
-448 -18 -1098 -63 -1660 -115 -146 -14 -294 -28 -330 -31 -137 -12 -649 -77
-975 -124 -721 -105 -1293 -220 -2295 -464 -197 -48 -826 -226 -1195 -338
-1753 -533 -3386 -1240 -4940 -2140 -548 -317 -1205 -740 -1720 -1106 -485
-345 -1111 -830 -1470 -1136 -33 -29 -107 -92 -165 -141 -693 -591 -1457
-1340 -2091 -2050 -557 -624 -1101 -1309 -1581 -1989 -271 -383 -502 -733
-756 -1141 -592 -953 -1057 -1842 -1550 -2960 -467 -1059 -935 -2424 -1238
-3610 -89 -344 -245 -1002 -260 -1090 -3 -22 -31 -157 -61 -300 -54 -262 -80
-404 -172 -950 -156 -934 -262 -1990 -311 -3105 -13 -292 -13 -1607 0 -1910
43 -1017 131 -1963 276 -2950 31 -213 164 -970 199 -1135 20 -93 47 -226 61
-295 60 -312 283 -1236 374 -1545 17 -60 44 -157 60 -215 50 -190 217 -730
331 -1071 318 -956 608 -1685 1067 -2684 354 -773 897 -1772 1395 -2570 55
-88 123 -196 150 -240 102 -164 460 -698 617 -920 407 -576 720 -987 1165
-1530 926 -1130 2026 -2243 3179 -3215 174 -147 188 -158 482 -396 416 -335
856 -668 1299 -981 264 -187 825 -566 993 -672 42 -26 129 -81 192 -121 292
-186 565 -351 1035 -625 139 -81 536 -300 775 -427 1686 -900 3597 -1697 5325
-2221 453 -138 1235 -349 1430 -387 33 -7 152 -34 265 -60 113 -27 255 -58
315 -70 61 -12 218 -44 351 -71 520 -107 1392 -244 2069 -324 193 -23 732 -70
1085 -95 996 -70 2242 -78 3295 -20 1225 68 2313 207 3587 459 222 44 491 100
598 125 107 24 211 47 230 51 133 24 873 210 1275 320 907 247 1946 598 2680
905 77 32 167 70 200 83 154 63 390 174 725 338 423 208 607 305 1160 609 77
42 297 169 505 290 278 163 744 478 770 521 23 35 113 -3 775 -326 756 -370
1057 -505 1468 -661 723 -274 1350 -407 2342 -496 193 -17 950 -17 1165 0 457
37 883 93 1217 162 530 108 896 204 1253 328 874 304 1774 793 2405 1307 155
126 324 289 444 429 205 239 214 256 223 437 6 120 -7 218 -39 287 -16 33
-241 271 -842 891 -451 465 -853 880 -893 921 -40 41 -73 80 -73 87 0 13 431
392 1306 1148 261 226 1166 1011 1239 1075 28 25 94 82 146 126 52 45 238 207
414 359 176 152 360 312 409 354 49 42 115 99 146 126 31 28 157 138 280 245
236 205 1399 1222 1630 1425 315 277 523 470 556 513 45 61 63 126 71 242 6
106 -8 222 -36 284 -53 121 -428 520 -1756 1871 -308 314 -585 593 -615 622
-108 103 -192 128 -392 121 -145 -6 -204 -24 -282 -90 -28 -24 -224 -194 -437
-378 -212 -184 -578 -501 -814 -705 -236 -203 -514 -444 -619 -535 -199 -172
-504 -436 -586 -505 -26 -22 -110 -94 -186 -161 -77 -66 -193 -167 -259 -224
-220 -189 -448 -386 -610 -526 -381 -329 -527 -455 -805 -693 -162 -140 -358
-308 -435 -375 -340 -293 -422 -363 -456 -391 -20 -17 -130 -111 -245 -210
-115 -99 -236 -202 -268 -230 -32 -27 -115 -98 -184 -157 -70 -60 -133 -108
-140 -108 -8 0 -51 35 -96 78 -759 729 -2038 1973 -3054 2969 -75 73 -132 137
-130 145 6 18 78 83 1023 933 105 94 258 231 340 305 408 363 503 449 551 490
63 55 454 404 539 480 34 30 113 101 175 156 63 56 201 178 305 270 105 93
211 187 236 209 25 22 166 148 314 280 147 132 292 260 321 285 28 25 110 97
181 160 204 185 1021 911 1073 955 194 166 970 865 991 894 50 67 64 131 64
286 0 159 -14 219 -70 295 -45 61 -1759 1768 -1965 1957 -332 304 -401 352
-530 373 -137 21 -289 7 -377 -36 -56 -27 -388 -300 -818 -674 -49 -43 -196
-169 -325 -280 -129 -111 -275 -237 -325 -280 -933 -808 -1125 -974 -1280
-1110 -28 -25 -96 -84 -151 -131 -54 -48 -160 -140 -235 -205 -359 -314 -689
-601 -939 -819 -403 -350 -488 -424 -680 -590 -96 -82 -199 -172 -230 -200
-31 -27 -100 -88 -155 -135 -54 -47 -169 -146 -254 -220 -86 -74 -198 -171
-250 -215 -52 -44 -115 -98 -139 -120 -134 -120 -379 -325 -389 -325 -14 0
-114 84 -472 394 -140 122 -278 241 -307 266 -53 46 -98 85 -308 270 -65 58
-137 121 -160 140 -23 19 -95 82 -160 140 -66 58 -140 123 -166 145 -26 22
-100 87 -166 145 -658 584 -676 598 -800 621 -87 17 -277 6 -340 -18 -100 -39
-86 -22 -441 -523 -1085 -1531 -1479 -2204 -1764 -3007 -197 -556 -371 -1326
-408 -1803 -53 -672 -48 -1640 10 -2290 45 -504 196 -1394 340 -1998 24 -102
27 -128 17 -138 -21 -21 -533 -211 -1468 -546 -1647 -590 -2600 -892 -3600
-1143 -146 -36 -337 -81 -425 -100 -88 -18 -236 -50 -330 -70 -495 -105 -1199
-207 -1760 -255 -749 -63 -1586 -58 -2345 15 -556 54 -670 68 -1309 170 -450
71 -1203 231 -1626 345 -99 27 -227 61 -285 75 -58 14 -190 51 -295 81 -819
238 -1605 507 -2285 782 -74 30 -166 67 -205 82 -85 34 -420 176 -605 258
-706 311 -1548 747 -2050 1062 -41 26 -154 96 -250 155 -302 187 -785 511
-1080 726 -511 372 -1019 792 -1550 1284 -261 241 -957 935 -1179 1174 -693
747 -1271 1465 -1798 2236 -189 276 -385 582 -558 870 -242 405 -397 683 -603
1085 -341 665 -644 1358 -936 2135 -169 451 -404 1167 -471 1435 -9 36 -40
153 -70 260 -112 410 -290 1247 -345 1620 -10 74 -31 207 -44 295 -100 637
-169 1461 -185 2215 -39 1820 199 3556 721 5242 119 388 284 857 407 1160 28
69 51 128 51 131 0 9 156 378 222 527 252 566 565 1183 826 1630 816 1396
1655 2488 2756 3585 271 270 608 587 772 726 29 24 114 98 190 164 331 285
565 469 1034 816 380 281 973 665 1475 956 1447 838 2966 1452 4610 1863 188
46 530 126 640 149 352 72 690 136 852 160 104 16 289 45 413 65 316 49 754
103 1025 126 550 46 2376 52 3065 9 295 -18 887 -89 1365 -164 413 -65 540
-87 685 -116 80 -16 219 -43 310 -59 90 -17 268 -55 395 -85 126 -29 246 -56
265 -60 64 -13 563 -145 755 -201 372 -108 981 -308 1215 -399 52 -20 142 -54
200 -75 113 -41 299 -115 530 -212 830 -345 1800 -829 2535 -1266 497 -295
908 -559 1390 -892 1066 -736 2437 -1821 3969 -3144 278 -239 346 -298 474
-411 69 -60 146 -128 172 -150 26 -22 100 -87 166 -145 65 -58 161 -143 213
-189 146 -128 520 -463 765 -686 121 -110 272 -247 336 -304 862 -780 2452
-2290 3725 -3541 396 -388 2608 -2601 2980 -2980 171 -173 418 -426 550 -560
321 -326 1030 -1054 1445 -1480 1071 -1103 1455 -1500 2386 -2470 330 -344
501 -522 1158 -1210 171 -178 417 -435 546 -570 311 -325 584 -611 925 -970
154 -162 419 -441 590 -620 170 -179 386 -406 479 -505 94 -99 220 -232 281
-295 61 -63 234 -245 385 -405 151 -159 327 -344 390 -410 63 -66 237 -248
386 -405 148 -157 497 -523 774 -815 278 -291 552 -579 609 -640 58 -60 155
-162 215 -225 61 -63 244 -255 406 -425 162 -170 403 -422 535 -560 132 -138
434 -453 670 -700 501 -524 1402 -1461 1620 -1685 1219 -1255 2099 -2144 3995
-4040 2609 -2608 4243 -4217 4565 -4494 625 -537 1102 -930 1489 -1226 54 -41
130 -100 170 -131 81 -63 477 -354 609 -447 48 -34 124 -88 170 -121 45 -32
199 -137 342 -233 821 -549 1559 -975 2545 -1468 203 -102 705 -340 716 -340
2 0 50 -21 106 -46 107 -48 339 -146 513 -216 55 -22 154 -61 220 -88 908
-366 1835 -688 2830 -983 121 -36 258 -75 305 -87 47 -12 153 -41 235 -65 429
-124 1750 -431 2170 -504 61 -11 230 -42 377 -70 146 -28 340 -62 430 -75 89
-14 278 -44 418 -66 498 -80 1392 -186 1890 -224 799 -61 1949 -87 3020 -67
1157 22 1643 54 2565 171 568 72 618 79 905 125 157 25 344 55 415 66 72 11
212 36 312 54 99 19 243 46 320 61 484 90 1179 245 1748 391 1514 387 3091
939 4425 1548 1183 540 2117 1043 3245 1747 239 149 820 533 965 637 36 26
126 89 200 141 604 418 1496 1109 2070 1604 674 582 1876 1775 2581 2561 311
348 813 969 1195 1480 343 460 546 748 866 1228 137 204 174 263 388 602 417
663 838 1418 1217 2185 298 603 638 1378 843 1920 26 69 62 161 80 205 123
306 399 1122 554 1635 129 429 326 1159 376 1395 12 55 39 172 61 260 23 88
54 225 69 305 16 80 49 239 74 353 25 115 59 286 75 380 17 95 49 271 71 392
22 121 54 310 70 420 16 110 45 306 64 435 43 286 55 383 105 850 81 736 86
888 86 2370 0 1183 -5 1456 -35 1990 -21 360 -83 921 -156 1400 -24 162 -55
367 -69 455 -13 88 -44 270 -70 405 -26 135 -57 306 -70 380 -13 74 -49 245
-79 380 -30 135 -62 283 -71 330 -24 119 -166 695 -231 940 -170 633 -317
1102 -608 1940 -57 163 -261 687 -383 980 -311 752 -760 1677 -1163 2400 -205
367 -233 416 -489 840 -217 358 -205 339 -389 625 -1012 1568 -2171 2992
-3513 4320 -1198 1185 -2465 2218 -3869 3158 -258 172 -346 229 -635 410
-1462 912 -3033 1671 -4710 2273 -408 146 -1275 428 -1565 507 -69 19 -197 55
-285 80 -413 118 -1036 274 -1600 400 -278 62 -950 199 -1090 221 -49 8 -205
35 -346 60 -806 145 -2186 318 -2959 371 -659 45 -1834 63 -2927 46 -1195 -18
-1444 -35 -2573 -167 -741 -87 -1624 -225 -2265 -355 -661 -134 -845 -175
-1430 -320 -825 -206 -1570 -432 -2465 -749 -339 -120 -962 -367 -1365 -542
-523 -226 -1308 -603 -1720 -826 -604 -326 -1092 -609 -1535 -889 -52 -33
-140 -88 -195 -123 -170 -107 -351 -229 -640 -430 -372 -258 -1102 -799 -1590
-1177 -66 -51 -174 -135 -239 -186 -124 -96 -844 -669 -931 -741 -27 -23 -88
-73 -135 -112 -1297 -1072 -2219 -1944 -3049 -2887 -171 -194 -155 -180 -204
-173 -23 4 -168 35 -322 70 -551 125 -873 195 -1430 310 -1265 261 -2133 369
-3270 406 -1378 45 -2388 -58 -3388 -345 -508 -146 -827 -268 -1231 -473 -481
-243 -915 -537 -1276 -862 -242 -218 -355 -337 -593 -627 -226 -277 -235 -294
-244 -463 -7 -120 7 -218 39 -289 15 -32 85 -110 227 -256 265 -270 1589
-1611 2286 -2315 297 -300 731 -738 965 -975 234 -236 457 -461 495 -500 39
-38 441 -446 895 -905 717 -726 1502 -1520 1725 -1745 39 -39 246 -248 460
-465 2152 -2178 5594 -5652 6238 -6294 349 -348 361 -357 494 -378 85 -13 242
-4 309 18 111 36 199 134 323 361 75 138 282 474 459 748 39 61 90 139 112
175 23 36 85 133 140 215 1010 1539 1381 2293 1654 3365 225 883 299 1690 245
2695 -24 455 -116 1126 -219 1600 -23 105 -54 249 -70 321 -16 73 -49 212 -75
310 -26 99 -62 238 -80 311 -19 72 -47 175 -64 229 -17 54 -31 110 -31 125 0
28 90 136 389 464 674 738 1622 1648 2312 2220 19 17 100 84 180 151 384 321
897 720 1319 1025 161 117 411 296 450 321 14 9 90 62 170 117 207 142 648
431 840 550 343 211 472 289 690 415 409 238 617 352 990 547 512 266 998 497
1530 726 206 89 482 202 595 245 44 16 136 51 205 78 380 149 1097 389 1445
485 66 18 168 47 228 64 352 103 1128 278 1532 346 116 20 217 37 225 40 40
12 519 78 785 109 717 84 1100 110 1824 126 659 14 1382 -3 1971 -45 380 -28
1037 -96 1365 -141 158 -22 264 -38 720 -110 55 -8 213 -37 350 -64 138 -27
291 -56 340 -65 265 -47 1058 -239 1465 -355 785 -222 1628 -513 2307 -797 84
-34 155 -63 158 -63 20 0 713 -315 1030 -468 927 -449 1768 -933 2440 -1405
364 -256 800 -596 1095 -856 619 -544 1539 -1513 2251 -2371 568 -684 1090
-1409 1544 -2145 819 -1326 1439 -2686 1889 -4140 115 -372 295 -1056 340
-1290 8 -44 36 -179 61 -299 44 -213 134 -744 174 -1036 27 -194 87 -785 106
-1045 55 -761 58 -1554 9 -2315 -51 -797 -161 -1659 -290 -2270 -19 -91 -48
-230 -64 -310 -36 -180 -147 -635 -205 -835 -24 -82 -51 -179 -60 -215 -41
-163 -258 -834 -369 -1140 -774 -2133 -1945 -4131 -3449 -5883 -538 -627
-1248 -1346 -1862 -1888 -654 -576 -1377 -1119 -2065 -1552 -411 -259 -667
-413 -995 -599 -143 -81 -231 -129 -520 -286 -182 -99 -789 -399 -1040 -514
-731 -336 -1457 -621 -2190 -861 -202 -66 -584 -184 -685 -211 -30 -8 -127
-35 -215 -60 -411 -116 -1176 -293 -1535 -355 -96 -17 -261 -46 -367 -65 -167
-31 -537 -85 -898 -131 -312 -41 -748 -75 -1340 -107 -317 -17 -1481 -17
-1795 0 -659 35 -1098 71 -1485 121 -492 64 -717 98 -995 151 -85 16 -209 38
-275 50 -451 79 -1316 292 -1915 472 -529 159 -1294 420 -1615 553 -49 20
-114 45 -142 55 -106 38 -628 256 -853 357 -1373 617 -2560 1284 -3728 2097
-404 281 -471 340 -1442 1275 -545 526 -1238 1200 -1685 1641 -143 141 -532
523 -865 850 -333 327 -731 718 -884 869 -154 152 -292 287 -306 301 -15 14
-200 196 -411 405 -814 806 -1792 1770 -1799 1775 -4 3 -351 345 -771 760
-952 941 -1361 1345 -1839 1816 -391 386 -1039 1026 -1705 1684 -214 212 -727
718 -1140 1125 -412 407 -950 938 -1195 1180 -245 242 -636 629 -870 860 -234
231 -603 596 -820 810 -603 597 -2162 2136 -3235 3195 -236 234 -619 612 -850
840 -529 522 -983 970 -1525 1506 -234 230 -618 610 -855 844 -236 234 -781
772 -1210 1195 -429 423 -935 923 -1125 1110 -190 188 -543 537 -785 776 -242
238 -631 623 -865 854 -581 574 -1602 1581 -2310 2280 -195 193 -384 379 -420
415 -36 36 -216 214 -400 395 -184 182 -501 495 -705 695 -2043 2016 -3504
3446 -3915 3830 -201 188 -156 149 -956 806 -416 341 -1042 842 -1344 1076
-19 15 -78 60 -130 101 -222 172 -501 384 -725 551 -132 98 -256 191 -275 206
-19 14 -102 75 -185 135 -82 59 -188 136 -235 170 -109 79 -269 193 -395 281
-55 39 -145 102 -200 141 -137 96 -374 257 -655 443 -368 245 -405 269 -1060
678 -246 153 -799 474 -1170 679 -313 172 -377 207 -716 382 -1661 859 -3180
1450 -4789 1863 -668 171 -1424 327 -2030 418 -513 77 -602 89 -955 129 -704
79 -1139 115 -1583 131 -155 6 -358 15 -452 20 -227 13 -1700 20 -2140 10z
m2425 -230 c454 -15 730 -29 1020 -51 2919 -219 5367 -876 7965 -2137 149 -72
333 -163 410 -203 77 -39 181 -92 230 -117 88 -45 402 -211 620 -329 458 -248
1142 -650 1615 -950 69 -43 181 -115 250 -158 259 -164 870 -575 1199 -805
1087 -761 2242 -1647 3525 -2704 121 -100 285 -235 365 -300 186 -152 257
-214 466 -411 317 -299 1405 -1358 1885 -1835 36 -36 196 -193 355 -350 160
-156 432 -424 605 -595 173 -170 614 -605 980 -965 366 -360 856 -844 1090
-1075 234 -232 756 -747 1160 -1145 749 -738 1377 -1358 1985 -1960 187 -185
691 -682 1120 -1105 429 -423 983 -970 1230 -1215 248 -245 624 -616 836 -825
211 -209 591 -584 844 -834 253 -250 620 -612 815 -805 195 -192 537 -530 760
-751 223 -220 756 -747 1185 -1170 429 -424 971 -959 1205 -1190 234 -232 774
-765 1200 -1185 973 -960 2311 -2282 2364 -2336 23 -23 581 -574 1241 -1225
1130 -1115 1384 -1366 2400 -2369 225 -223 572 -566 770 -761 490 -483 1137
-1123 1625 -1604 222 -220 567 -560 765 -755 198 -196 536 -529 750 -741 215
-212 687 -677 1050 -1034 363 -357 820 -807 1015 -1000 820 -808 2117 -2079
2735 -2681 1154 -1122 1483 -1425 1765 -1625 731 -521 1490 -995 2290 -1432
194 -106 656 -345 815 -422 661 -320 989 -467 1540 -690 1250 -506 2537 -893
3830 -1150 1374 -274 2600 -386 4075 -372 1045 10 1801 68 2735 213 1682 259
3283 715 4845 1379 1189 506 2417 1168 3479 1877 1334 892 2612 2040 3722
3343 1397 1641 2501 3473 3274 5430 416 1054 749 2208 944 3270 156 853 233
1526 283 2475 17 320 17 1329 0 1640 -37 676 -97 1288 -183 1845 -35 230 -116
680 -160 886 -376 1782 -985 3404 -1882 5014 -526 944 -1171 1892 -1873 2756
-625 768 -1452 1667 -2073 2253 -801 756 -1809 1477 -2912 2084 -535 294
-1202 623 -1744 862 -1182 520 -2422 935 -3690 1235 -1747 413 -3544 613
-5305 592 -560 -7 -804 -18 -1335 -58 -1952 -145 -3848 -603 -5725 -1382 -536
-223 -959 -417 -1525 -703 -1923 -969 -3775 -2238 -5480 -3754 -790 -703
-1667 -1594 -2294 -2334 l-74 -87 81 -262 c141 -456 312 -1143 372 -1491 10
-61 30 -176 44 -256 54 -316 76 -489 108 -855 20 -228 23 -321 22 -750 0 -520
-6 -618 -59 -1043 -105 -827 -361 -1660 -741 -2412 -253 -501 -507 -926 -1072
-1793 -355 -543 -610 -952 -707 -1132 -64 -118 -122 -205 -139 -205 -13 0
-1869 1862 -3836 3850 -525 531 -1378 1393 -1895 1915 -517 523 -1482 1499
-2145 2170 -662 671 -1441 1459 -1730 1750 -663 668 -2947 2977 -3508 3547
-378 384 -422 432 -409 446 7 10 62 78 122 152 439 545 881 928 1480 1281 795
470 1833 791 2920 903 602 63 1513 70 2350 21 1122 -67 2153 -246 4479 -780
110 -25 203 -44 206 -43 3 2 87 95 185 208 681 780 1174 1277 2045 2061 1187
1068 3310 2720 4450 3464 1309 854 2753 1602 4203 2179 2363 940 4880 1514
7757 1770 464 42 826 54 1840 62 659 6 1712 -5 2020 -21 47 -2 146 -7 220 -10
409 -18 1280 -106 2030 -206 2572 -342 4986 -983 7200 -1912 278 -116 632
-274 967 -430 176 -82 851 -420 991 -496 48 -26 152 -83 232 -126 578 -311
1255 -721 1845 -1116 1781 -1191 3407 -2601 4856 -4209 104 -116 294 -332 334
-381 17 -20 71 -83 120 -140 290 -334 695 -842 1027 -1289 425 -572 784 -1101
1170 -1725 244 -394 255 -412 412 -685 362 -627 724 -1319 976 -1864 400 -864
805 -1889 1024 -2596 18 -58 58 -184 89 -280 122 -381 280 -949 391 -1405 55
-225 190 -833 210 -940 3 -16 28 -147 55 -290 85 -444 190 -1101 226 -1415 9
-74 27 -223 40 -330 62 -493 81 -884 95 -1948 12 -932 -6 -2236 -35 -2527 -3
-27 -14 -144 -26 -260 -23 -238 -107 -914 -145 -1170 -446 -3017 -1356 -5758
-2779 -8365 -794 -1456 -1894 -3047 -2969 -4295 -585 -678 -1832 -1933 -2607
-2621 -462 -411 -1288 -1061 -1949 -1536 -1184 -848 -2419 -1590 -3735 -2243
-321 -159 -429 -210 -795 -377 -1753 -798 -3712 -1435 -5625 -1829 -159 -32
-321 -66 -360 -74 -80 -17 -622 -114 -800 -144 -899 -151 -2040 -283 -2690
-311 -971 -41 -2465 -41 -3450 0 -549 23 -1335 104 -2150 221 -2251 322 -4397
886 -6515 1712 -557 217 -958 384 -1325 550 -214 97 -1043 510 -1270 633
-1549 839 -2773 1693 -4305 3004 -317 270 -377 326 -795 729 -715 690 -1901
1866 -4000 3965 -3017 3017 -3694 3709 -6299 6436 -950 994 -1139 1192 -1361
1425 -121 127 -391 411 -600 630 -209 220 -558 586 -775 815 -531 560 -891
938 -1340 1410 -206 217 -510 536 -675 710 -509 536 -1093 1149 -1210 1270
-62 63 -215 223 -340 355 -341 359 -862 903 -1005 1050 -70 72 -243 252 -385
400 -283 295 -1155 1202 -1410 1465 -542 560 -1215 1253 -1719 1770 -2141
2193 -4378 4420 -5841 5815 -115 110 -266 254 -335 320 -280 269 -1222 1148
-1645 1535 -99 90 -229 210 -290 265 -793 727 -1979 1762 -2905 2536 -2677
2238 -4426 3397 -6585 4364 -1524 683 -3031 1126 -4805 1414 -509 83 -1248
174 -1550 191 -490 28 -1624 37 -2402 20 -524 -12 -729 -23 -1013 -56 -1644
-188 -3074 -510 -4495 -1009 -1075 -379 -2112 -864 -3135 -1468 -897 -530
-1763 -1155 -2545 -1836 -549 -479 -1192 -1122 -1681 -1681 -1533 -1756 -2734
-3875 -3432 -6060 -462 -1444 -704 -2771 -794 -4350 -21 -377 -24 -1388 -5
-1725 59 -1046 142 -1750 308 -2625 50 -264 88 -438 185 -865 41 -179 140
-553 206 -775 31 -102 62 -210 70 -240 21 -79 159 -501 242 -737 94 -269 169
-470 306 -813 161 -403 191 -474 414 -975 131 -293 451 -924 635 -1255 30 -52
68 -122 86 -155 18 -33 54 -96 80 -140 26 -44 78 -132 115 -195 224 -381 549
-879 839 -1285 327 -459 826 -1089 1141 -1441 5 -6 53 -60 105 -120 505 -576
1286 -1357 1905 -1904 768 -680 1480 -1204 2470 -1820 1995 -1240 4782 -2287
7330 -2755 1080 -198 2007 -288 2975 -287 1946 2 3788 381 6560 1350 965 338
2331 834 2535 922 l48 20 -7 53 c-9 68 -75 394 -136 672 -170 769 -264 1382
-309 2005 -20 266 -33 861 -27 1160 18 816 64 1178 227 1810 186 717 440 1298
879 2010 227 368 495 768 964 1435 144 204 284 405 311 448 28 42 52 77 55 77
7 0 160 -133 564 -491 120 -107 240 -212 266 -234 26 -22 222 -193 435 -380
875 -766 1365 -1189 1396 -1206 23 -12 48 9 1064 887 646 559 1122 971 1557
1351 2116 1847 3770 3274 3804 3281 35 8 179 -117 601 -522 293 -280 1703
-1693 1702 -1704 0 -4 -33 -33 -73 -64 -103 -80 -4304 -3815 -5391 -4792 -446
-401 -866 -786 -894 -820 -13 -16 -6 -25 70 -100 46 -45 208 -204 359 -352
151 -148 388 -379 525 -514 470 -462 1936 -1885 2390 -2321 77 -74 223 -216
325 -316 102 -100 197 -191 211 -202 l27 -21 273 232 c282 238 770 656 1079
923 96 83 348 300 560 482 212 182 489 420 615 529 127 109 295 254 375 323
80 68 177 152 215 186 39 34 367 317 730 630 1650 1423 2324 2007 2448 2122
43 40 82 73 86 73 10 0 1264 -1276 1662 -1690 293 -306 603 -639 663 -713 34
-41 37 -50 25 -62 -8 -8 -55 -49 -105 -92 -50 -43 -241 -211 -425 -373 -674
-597 -1276 -1121 -2779 -2423 -553 -479 -1075 -932 -1160 -1006 -86 -75 -236
-206 -335 -291 -209 -181 -425 -369 -690 -600 -104 -91 -296 -258 -425 -370
-343 -298 -520 -460 -520 -474 0 -8 60 -72 133 -143 142 -139 333 -333 822
-837 171 -175 322 -331 336 -345 15 -14 185 -190 379 -391 194 -201 370 -382
391 -402 22 -21 39 -40 39 -43 0 -13 -262 -295 -373 -401 -527 -507 -1486
-1057 -2455 -1410 -494 -180 -1215 -347 -1832 -423 -788 -99 -1512 -91 -2310
25 -788 114 -1448 333 -2455 812 -115 55 -356 172 -535 260 -734 361 -887 415
-1042 368 -53 -16 -103 -48 -213 -140 -353 -293 -1469 -934 -2490 -1428 -2110
-1021 -5336 -1860 -8105 -2107 -736 -66 -1419 -94 -2295 -94 -1330 0 -2444 76
-3575 244 -2413 357 -4351 930 -6850 2022 -717 313 -1710 807 -2425 1205 -746
415 -1482 868 -2133 1314 -1277 873 -2460 1839 -3471 2833 -785 771 -1230
1259 -1976 2165 -261 317 -705 908 -1027 1368 -670 957 -1281 1984 -1816 3052
-182 362 -220 441 -359 745 -1057 2299 -1781 4864 -2078 7360 -96 813 -150
1499 -172 2185 -10 317 -10 1515 0 1825 43 1345 226 2838 513 4195 595 2813
1653 5449 3117 7765 1659 2626 3813 4836 6387 6554 1155 771 2377 1432 3660
1981 1698 726 3673 1309 5405 1595 879 145 1650 227 2825 300 350 22 1006 52
1270 59 238 6 1646 -4 1940 -14z"/>
<path d="M19370 15449 c-71 -14 -150 -59 -187 -107 -68 -89 -89 -213 -103
-592 -13 -351 -12 -2115 0 -2202 13 -87 36 -154 70 -200 15 -21 353 -367 751
-770 715 -723 1350 -1369 2299 -2338 266 -272 597 -610 735 -750 229 -232
1122 -1145 1170 -1195 49 -52 897 -918 1150 -1175 154 -157 503 -512 775 -790
501 -512 962 -981 1080 -1100 36 -36 328 -333 650 -660 903 -919 1551 -1569
1595 -1600 74 -51 126 -63 280 -64 184 -1 236 14 316 93 94 95 105 156 119
616 25 863 43 11987 20 12215 -13 124 -40 200 -92 256 -50 55 -106 80 -217 99
-76 14 -220 15 -1042 13 -876 -3 -959 -5 -1014 -21 -150 -44 -214 -122 -246
-301 -5 -29 -13 -1590 -19 -3655 -6 -1983 -13 -3607 -16 -3610 -3 -3 -65 55
-136 129 -72 74 -289 297 -482 495 -528 541 -1102 1129 -1575 1615 -234 239
-511 523 -616 630 -105 107 -465 476 -800 820 -1455 1492 -3238 3312 -3775
3851 -251 252 -285 277 -399 299 -64 12 -227 11 -291 -1z m881 -576 c211 -214
524 -530 694 -703 170 -173 422 -430 560 -570 268 -272 877 -895 1584 -1620
239 -245 523 -535 631 -645 108 -110 452 -463 765 -785 313 -322 654 -673 759
-780 514 -524 698 -713 1422 -1455 429 -440 814 -837 855 -882 108 -120 673
-701 682 -702 4 -1 7 437 8 972 0 1664 16 7268 20 7272 2 2 406 5 898 7 l894
3 -6 -5495 c-5 -5112 -15 -6952 -35 -6972 -5 -5 -91 76 -193 179 -101 104
-518 526 -925 938 -407 413 -980 995 -1274 1295 -294 300 -672 685 -840 855
-168 171 -510 519 -759 775 -250 256 -570 582 -711 725 -141 143 -461 469
-710 725 -250 256 -569 582 -710 725 -141 143 -469 478 -730 745 -260 267
-598 611 -750 765 -152 154 -505 514 -786 800 -280 286 -792 805 -1138 1155
l-628 635 6 1155 c3 635 8 1166 10 1180 2 14 5 40 5 58 1 17 5 32 9 32 5 0
181 -174 393 -387z"/>
<path d="M56110 15334 c-462 -36 -714 -74 -1165 -175 -809 -182 -1567 -513
-2245 -981 -607 -418 -1165 -956 -1586 -1528 -409 -556 -698 -1104 -920 -1748
-185 -537 -279 -949 -324 -1417 -24 -256 -34 -830 -22 -1231 18 -596 48 -791
217 -1419 186 -690 476 -1323 864 -1885 659 -955 1487 -1700 2451 -2203 576
-301 1192 -505 1930 -641 152 -28 527 -70 758 -86 196 -13 674 -13 862 0 413
29 680 68 1082 160 1014 232 1882 684 2673 1392 522 468 961 1022 1309 1650
216 391 375 746 501 1119 80 238 86 263 92 360 7 131 -8 225 -48 307 -17 35
-29 65 -27 66 1 1 24 10 50 20 109 40 164 106 198 239 23 91 74 607 91 916 15
283 7 880 -15 1011 -21 129 -40 189 -79 246 -71 103 -163 138 -405 154 -381
24 -6224 45 -6397 22 -130 -17 -189 -38 -245 -88 -58 -53 -83 -105 -107 -220
-17 -82 -18 -162 -18 -1039 0 -1025 -1 -1007 53 -1108 45 -84 116 -129 239
-153 63 -12 377 -14 2061 -14 1093 0 1996 -3 2007 -6 18 -4 8 -29 -111 -272
-209 -427 -337 -627 -576 -898 -391 -445 -835 -757 -1401 -984 -441 -177 -781
-234 -1382 -234 -465 0 -672 24 -1001 120 -545 157 -1135 467 -1560 819 -100
82 -353 334 -454 450 -138 158 -328 429 -442 630 -269 474 -457 993 -513 1419
-39 298 -39 815 1 1114 69 531 313 1154 647 1657 302 454 710 859 1156 1149
393 255 974 502 1376 586 196 40 281 45 825 45 604 0 594 1 900 -86 431 -122
818 -305 1160 -549 167 -120 266 -204 440 -379 223 -223 339 -367 534 -663
173 -263 258 -353 378 -400 42 -17 81 -22 193 -26 164 -5 174 -3 515 97 129
38 359 104 510 146 151 42 356 101 455 130 99 30 248 72 330 95 183 50 241 77
297 139 59 65 80 135 86 281 5 136 -13 234 -57 325 -97 195 -470 777 -690
1075 -105 143 -425 523 -546 649 -329 343 -953 808 -1485 1108 -342 192 -856
400 -1255 508 -306 82 -701 156 -1025 190 -528 56 -798 65 -1140 39z m1102
-224 c253 -21 389 -37 618 -71 654 -98 1334 -337 1895 -664 570 -333 1172
-810 1465 -1160 41 -50 115 -137 165 -195 152 -177 216 -263 430 -580 228
-338 440 -690 451 -748 8 -40 0 -47 -60 -56 -22 -4 -183 -48 -356 -98 -173
-49 -385 -109 -470 -133 -268 -74 -784 -223 -813 -234 -42 -16 -69 -13 -98 12
-38 33 -115 135 -213 284 -406 620 -888 1066 -1496 1385 -397 208 -930 379
-1305 418 -168 17 -739 24 -970 11 -397 -22 -627 -63 -949 -167 -277 -90 -688
-272 -921 -406 -901 -523 -1585 -1351 -1943 -2353 -64 -181 -138 -444 -171
-610 -103 -515 -93 -1377 20 -1840 76 -307 218 -699 357 -985 474 -972 1211
-1677 2212 -2118 472 -208 884 -314 1373 -353 195 -15 762 -6 952 15 531 60
938 182 1401 420 364 188 668 410 959 701 339 338 543 628 781 1113 l134 272
930 0 c683 0 930 -3 930 -11 0 -20 -119 -357 -180 -508 -210 -526 -562 -1149
-875 -1546 -590 -749 -1250 -1294 -2040 -1685 -806 -398 -1672 -594 -2605
-589 -342 1 -561 17 -870 60 -955 134 -1815 464 -2600 997 -823 558 -1559
1368 -2039 2245 -236 430 -418 908 -556 1460 -134 535 -140 593 -140 1427 0
670 5 789 46 1075 64 447 269 1102 501 1599 697 1494 1986 2679 3523 3239 556
203 1086 320 1685 372 343 30 528 31 842 5z m3338 -5651 c965 -6 1855 -10
1978 -11 l223 0 12 -27 c16 -36 22 -743 8 -975 -14 -241 -61 -760 -69 -766 -4
-3 -1437 -4 -3185 -2 l-3179 2 4 883 c1 485 7 888 11 895 10 15 1695 16 4197
1z"/>
<path d="M89470 15286 c-238 -32 -324 -48 -615 -112 -287 -63 -294 -65 -555
-146 -553 -172 -1098 -424 -1540 -711 -769 -500 -1388 -1097 -1920 -1852 -434
-616 -729 -1253 -931 -2010 -114 -428 -169 -720 -190 -1010 -17 -246 -6 -1548
15 -1724 61 -514 250 -1195 473 -1706 208 -474 448 -894 737 -1290 750 -1026
1768 -1812 2933 -2264 353 -137 588 -207 975 -291 492 -106 840 -155 1058
-147 176 5 225 21 301 97 64 64 85 117 99 256 5 49 10 481 10 959 0 479 -5
910 -10 959 -15 143 -34 191 -104 261 -74 73 -112 87 -318 115 -224 31 -298
47 -520 111 -494 142 -848 297 -1213 533 -249 160 -422 301 -655 535 -258 259
-421 467 -599 766 -663 1115 -761 2398 -272 3574 197 474 471 881 871 1295
220 228 428 402 637 535 337 213 817 426 1223 541 201 56 287 73 491 95 227
24 305 50 371 123 47 52 74 128 87 245 14 127 15 1808 1 1932 -17 142 -36 191
-100 255 -82 83 -125 94 -370 97 -158 2 -228 -2 -370 -21z m770 -1091 c0 -500
-2 -910 -3 -911 -1 -1 -54 -7 -117 -14 -279 -28 -478 -71 -773 -166 -495 -161
-1018 -421 -1339 -666 -319 -242 -651 -583 -918 -943 -452 -607 -717 -1291
-817 -2105 -26 -209 -26 -803 0 -1010 72 -573 211 -1048 443 -1513 424 -847
1055 -1487 1904 -1935 409 -215 1219 -466 1530 -473 25 -1 55 -4 68 -7 l22 -7
0 -904 c0 -498 -2 -907 -5 -910 -10 -10 -536 71 -776 119 -389 78 -671 159
-1006 289 -1413 547 -2566 1569 -3291 2916 -228 424 -425 931 -546 1405 -135
525 -141 593 -141 1525 0 795 4 865 61 1140 253 1209 714 2124 1530 3035 489
547 1249 1125 1852 1411 543 257 1055 431 1552 528 280 54 712 115 763 107 5
-1 8 -411 7 -911z"/>
<path d="M90752 15295 c-198 -43 -302 -159 -353 -390 -22 -98 -23 -118 -26
-942 -3 -528 0 -876 6 -932 14 -129 38 -195 88 -251 69 -76 138 -100 367 -125
213 -23 314 -42 503 -96 467 -132 1042 -406 1358 -647 185 -141 438 -368 591
-532 563 -601 953 -1440 1049 -2260 23 -191 30 -533 16 -720 -34 -445 -136
-862 -317 -1287 -112 -265 -291 -588 -422 -764 -156 -210 -519 -594 -717 -760
-271 -226 -523 -387 -847 -544 -373 -179 -700 -278 -1218 -370 -80 -14 -179
-35 -220 -47 -65 -19 -82 -30 -130 -78 -64 -63 -85 -117 -100 -252 -13 -110
-13 -1817 0 -1928 16 -136 36 -187 99 -250 77 -76 125 -92 306 -97 116 -4 181
1 380 26 483 63 982 178 1440 335 429 146 967 411 1365 672 902 591 1670 1401
2181 2300 89 157 242 467 325 660 156 364 319 890 404 1310 88 435 100 591
100 1354 0 517 -8 760 -31 960 -15 136 -83 477 -134 675 -307 1189 -807 2082
-1717 3062 -184 199 -312 311 -683 599 -280 218 -383 285 -765 498 -511 286
-847 426 -1460 610 -84 25 -478 115 -680 155 -330 65 -617 86 -758 56z m716
-221 c645 -105 1083 -221 1547 -409 299 -121 466 -205 875 -438 263 -150 335
-197 497 -322 81 -64 182 -141 223 -173 282 -217 501 -433 840 -832 334 -393
640 -855 856 -1295 235 -480 411 -995 518 -1518 72 -348 71 -333 71 -1192 0
-826 -3 -879 -56 -1138 -270 -1321 -861 -2427 -1775 -3317 -337 -328 -624
-560 -994 -805 -731 -484 -1528 -790 -2443 -940 -202 -33 -480 -65 -490 -56
-4 4 -6 410 -5 901 l3 895 265 50 c306 59 400 81 600 141 818 246 1507 703
2099 1394 216 252 330 417 481 700 275 512 450 1074 517 1655 25 221 25 761 0
985 -78 702 -316 1371 -694 1948 -179 274 -326 456 -558 688 -391 392 -716
627 -1174 847 -318 153 -673 282 -977 356 -106 26 -284 54 -494 78 l-65 8 -3
740 c-3 926 3 1020 77 1060 37 20 82 18 259 -11z"/>
<path d="M73991 15200 c-119 -17 -171 -39 -232 -99 -64 -65 -85 -118 -99 -257
-14 -127 -13 -1830 1 -1951 14 -128 40 -197 98 -254 57 -58 126 -84 254 -98
65 -8 674 -11 1869 -11 1704 0 2400 -8 2668 -30 262 -22 403 -61 629 -175 277
-138 411 -282 496 -530 24 -71 28 -99 32 -245 3 -91 0 -204 -5 -252 -19 -153
-93 -306 -205 -426 -196 -209 -574 -373 -927 -401 -248 -21 -872 -30 -2640
-41 -965 -6 -1810 -15 -1877 -20 -269 -22 -364 -108 -393 -358 -13 -113 -13
-1775 0 -1899 25 -234 119 -328 353 -353 55 -6 717 -10 1642 -10 2595 0 3127
-18 3518 -116 117 -29 184 -54 337 -124 156 -71 272 -153 411 -290 171 -169
243 -285 308 -495 53 -171 65 -267 66 -495 0 -229 -9 -299 -60 -456 -85 -261
-233 -470 -444 -630 -96 -73 -364 -210 -526 -270 -267 -98 -362 -101 -3779
-125 -816 -5 -1449 -14 -1490 -19 -127 -18 -175 -38 -237 -99 -64 -65 -85
-118 -99 -257 -5 -49 -10 -474 -10 -944 0 -470 5 -895 10 -944 14 -139 35
-192 99 -257 60 -59 107 -80 226 -99 79 -13 4223 -13 4680 0 558 16 803 34
1035 76 589 108 1209 361 1625 663 511 371 908 825 1177 1346 137 267 238 547
317 880 101 429 121 584 128 997 6 364 -4 535 -43 772 -28 163 -119 539 -157
651 -235 675 -645 1232 -1170 1591 -48 32 -88 63 -90 69 -3 5 45 69 105 140
192 230 306 403 438 668 110 221 171 382 229 607 88 342 101 464 101 957 0
500 -16 650 -106 999 -75 292 -177 556 -299 770 -340 598 -934 1097 -1675
1407 -292 123 -751 252 -1190 335 -322 62 -755 76 -2705 92 -687 5 -1493 12
-1790 14 -297 3 -569 1 -604 -4z m2159 -225 c1756 -11 2622 -27 2935 -56 208
-18 492 -75 782 -155 552 -152 960 -348 1353 -648 140 -106 444 -412 546 -549
76 -102 174 -258 223 -355 90 -179 217 -559 263 -787 41 -204 40 -1001 -1
-1235 -51 -294 -206 -679 -394 -982 -106 -171 -245 -347 -382 -484 -152 -152
-245 -223 -408 -315 -65 -36 -119 -70 -119 -75 0 -5 40 -24 88 -42 283 -103
375 -145 526 -239 286 -177 584 -467 775 -753 279 -419 456 -906 520 -1430 21
-179 25 -638 5 -805 -91 -781 -334 -1399 -761 -1935 -96 -121 -385 -410 -521
-521 -339 -278 -610 -427 -1080 -594 -395 -141 -628 -183 -1195 -216 -113 -7
-1062 -13 -2532 -16 l-2353 -5 0 890 0 890 1008 6 c1687 10 3306 27 3507 36
556 26 711 53 990 171 302 128 494 249 660 414 126 127 210 245 290 410 142
290 192 551 182 935 -10 363 -77 662 -202 899 -111 208 -383 482 -620 623 -33
20 -109 58 -170 86 -295 134 -545 191 -985 226 -450 36 -575 38 -2617 43
l-2043 5 0 894 0 894 318 0 c1223 1 3647 25 4027 40 294 13 405 27 576 74 396
109 692 281 872 506 79 99 119 166 166 277 70 163 91 300 91 603 0 294 -29
446 -121 639 -138 289 -381 490 -788 650 -152 60 -211 75 -378 101 -360 54
-638 61 -2825 67 l-1938 5 -2 907 c-2 498 -1 910 1 915 2 4 195 5 430 2 234
-3 820 -8 1301 -11z"/>
<path d="M10623 15185 c-97 -17 -153 -46 -206 -105 -51 -57 -73 -117 -87 -240
-13 -114 -13 -1838 0 -1952 14 -121 43 -193 99 -249 57 -58 126 -84 254 -98
124 -14 6970 -15 7101 -1 127 13 188 35 247 88 58 52 84 99 106 191 14 57 17
185 20 960 4 933 0 1075 -36 1191 -38 122 -123 190 -270 216 -111 20 -7120 19
-7228 -1z m7457 -1117 l0 -921 -97 6 c-54 4 -1629 7 -3500 7 l-3403 0 0 910 0
910 3413 3 c1876 1 3451 3 3500 5 l87 2 0 -922z"/>
<path d="M31464 15185 c-160 -29 -242 -101 -281 -245 -15 -59 -17 -150 -20
-1015 -3 -603 0 -980 6 -1033 17 -137 38 -189 101 -252 64 -64 113 -83 255
-100 128 -14 6981 -14 7112 1 235 26 326 116 353 347 13 114 13 1838 0 1952
-16 136 -36 187 -99 251 -60 59 -107 80 -226 99 -38 6 -1327 10 -3595 9 -2832
-1 -3549 -3 -3606 -14z m7458 -1112 c-2 -505 -4 -918 -5 -918 -1 0 -1576 1
-3499 3 l-3498 2 0 910 0 910 3418 3 c1879 1 3455 3 3502 5 l85 2 -3 -917z"/>
<path d="M40003 15190 c-111 -17 -165 -41 -223 -99 -65 -66 -84 -116 -100
-261 -13 -125 -13 -1794 0 -1920 16 -149 34 -195 104 -266 71 -70 119 -89 262
-104 52 -6 951 -10 2174 -10 1990 0 2598 -7 2735 -30 111 -19 338 -100 481
-171 321 -160 532 -373 683 -690 91 -191 144 -380 177 -629 24 -183 15 -500
-19 -665 -87 -421 -289 -763 -580 -983 -103 -78 -324 -200 -466 -257 -107 -43
-192 -59 -376 -74 -186 -15 -1298 -29 -3153 -41 -950 -6 -1635 -15 -1683 -21
-115 -14 -185 -43 -240 -98 -59 -59 -85 -128 -99 -261 -14 -137 -14 -5946 0
-6080 16 -145 35 -195 100 -261 59 -59 106 -80 225 -99 87 -14 1875 -13 1967
1 178 28 256 88 302 236 l21 68 3 1918 2 1917 612 -2 612 -3 80 -110 c43 -60
237 -330 430 -600 334 -467 786 -1099 963 -1345 46 -63 143 -198 215 -300 150
-208 212 -294 418 -580 80 -111 172 -239 205 -285 33 -46 114 -159 181 -252
67 -92 179 -249 250 -348 71 -99 148 -199 172 -222 47 -47 118 -77 214 -93 82
-13 1693 -13 1967 0 228 11 304 21 405 51 58 17 78 29 125 77 72 72 91 126 98
279 10 191 -15 273 -125 411 -59 75 -192 255 -586 798 -45 61 -148 204 -231
319 -82 114 -188 260 -235 324 -46 64 -154 213 -240 332 -85 119 -218 304
-295 410 -464 645 -1095 1533 -1095 1541 0 5 69 42 153 82 1109 530 1914 1541
2211 2776 59 248 92 418 110 580 48 423 44 1094 -10 1500 -35 265 -135 665
-229 916 -300 801 -838 1438 -1595 1891 -275 164 -599 305 -985 426 -262 83
-316 97 -545 146 -429 92 -671 119 -1385 152 -283 13 -4082 22 -4162 9z m4132
-220 c745 -19 1123 -48 1495 -116 419 -77 954 -256 1332 -445 563 -282 1034
-703 1359 -1215 265 -417 471 -995 518 -1454 36 -349 39 -967 6 -1270 -74
-684 -332 -1358 -735 -1920 -173 -241 -457 -541 -685 -724 -305 -244 -698
-464 -1055 -591 -143 -51 -270 -111 -270 -128 0 -17 58 -101 240 -347 75 -102
203 -279 285 -395 82 -115 176 -248 210 -295 34 -47 100 -139 147 -205 73
-103 284 -397 452 -630 28 -38 120 -167 206 -287 216 -301 360 -501 525 -728
78 -107 201 -278 275 -380 367 -507 677 -929 717 -973 19 -21 32 -44 30 -50
-2 -6 -23 -16 -48 -20 -24 -5 -496 -10 -1049 -10 l-1005 -2 -237 330 c-130
182 -268 373 -306 425 -38 52 -203 282 -367 510 -164 228 -339 471 -388 540
-50 69 -145 202 -212 295 -67 94 -317 442 -555 775 -238 333 -535 747 -658
920 -124 173 -232 322 -241 331 -15 15 -103 18 -956 24 l-940 7 0 -2080 c0
-1145 -2 -2082 -5 -2084 -3 -2 -404 -2 -892 0 l-888 3 0 2989 0 2990 538 0
c295 0 715 2 932 5 217 2 845 7 1395 10 1316 8 1780 19 2070 51 256 28 345 54
576 170 260 129 393 219 537 362 331 328 515 755 577 1342 25 234 14 444 -41
765 -130 753 -517 1253 -1171 1514 -210 84 -400 131 -603 151 -209 20 -1151
29 -2992 30 l-1818 0 0 910 0 910 1658 0 c911 0 1828 -5 2037 -10z"/>
<path d="M62655 15190 c-135 -8 -274 -30 -344 -55 -161 -57 -229 -192 -219
-434 7 -140 22 -190 102 -326 227 -383 1298 -2176 1488 -2490 33 -55 103 -172
156 -260 52 -88 118 -198 147 -245 29 -47 95 -157 147 -245 52 -88 123 -205
156 -260 33 -55 518 -862 1076 -1794 l1016 -1694 0 -2386 c0 -1411 4 -2422 10
-2475 13 -126 35 -188 87 -246 53 -59 109 -87 210 -105 113 -21 1941 -21 2054
-1 193 35 272 121 299 328 8 58 10 829 8 2603 l-3 2520 -21 67 c-11 36 -49
116 -82 178 -34 61 -62 115 -62 120 0 14 11 12 61 -7 34 -13 78 -17 194 -17
133 0 156 3 209 23 108 43 126 67 416 546 560 925 718 1186 1278 2115 326 539
363 602 412 685 26 44 186 310 355 590 170 281 336 557 370 615 82 138 298
499 345 575 94 151 754 1261 789 1327 61 111 74 177 69 337 -4 124 -7 142 -33
199 -50 112 -133 163 -308 192 -138 23 -557 31 -1357 27 -876 -4 -872 -3 -973
-51 -63 -31 -118 -97 -181 -218 -55 -106 -118 -216 -276 -488 -37 -63 -134
-230 -215 -370 -81 -140 -177 -304 -213 -365 -149 -253 -203 -347 -277 -475
-43 -74 -107 -184 -143 -245 -35 -60 -88 -150 -117 -200 -29 -49 -155 -265
-281 -480 -392 -670 -623 -1066 -694 -1185 -37 -63 -139 -236 -225 -385 -87
-148 -182 -310 -211 -359 -30 -49 -63 -114 -75 -145 -18 -49 -38 -178 -39
-250 0 -40 8 -53 -268 434 -46 83 -111 195 -142 250 -155 269 -308 538 -345
605 -22 41 -59 107 -82 145 -22 39 -77 135 -123 215 -45 80 -106 186 -135 235
-29 50 -92 160 -140 245 -48 85 -111 196 -140 245 -29 50 -58 101 -65 115 -7
14 -36 66 -65 115 -29 50 -81 140 -115 200 -112 196 -301 527 -365 640 -60
107 -363 638 -568 995 -55 96 -126 220 -157 275 -128 227 -155 273 -197 336
-65 100 -127 136 -271 158 -81 13 -1709 13 -1927 1z m2210 -252 c15 -29 58
-105 95 -168 36 -63 126 -221 200 -350 73 -129 165 -291 205 -360 40 -69 130
-226 200 -350 70 -124 164 -288 208 -365 44 -77 116 -203 160 -280 44 -77 106
-185 137 -240 32 -55 214 -374 405 -710 399 -701 485 -851 565 -990 54 -93
145 -255 415 -730 59 -104 129 -226 155 -270 25 -44 82 -143 125 -220 84 -150
320 -566 415 -730 160 -280 228 -399 345 -605 126 -222 206 -362 362 -635 44
-77 90 -158 102 -180 l22 -40 -3 -2467 c-2 -1356 -5 -2468 -8 -2470 -3 -2
-414 -1 -915 2 l-910 5 -5 2490 -5 2490 -1804 3005 c-1688 2812 -2384 3975
-2461 4113 -18 32 -30 61 -26 64 20 20 188 26 961 32 473 4 899 8 946 9 l86 2
28 -52z m8208 35 c124 -3 232 -10 239 -14 11 -7 10 -13 -2 -31 -8 -13 -368
-612 -801 -1333 -841 -1402 -1134 -1889 -1714 -2850 -203 -335 -394 -653 -425
-705 -31 -52 -218 -360 -415 -685 -197 -324 -385 -634 -418 -689 l-60 -99 -18
24 c-33 43 -403 667 -619 1044 -117 204 -237 413 -267 465 -31 52 -56 100 -56
105 0 6 27 55 60 110 33 55 178 303 323 550 145 248 347 592 448 765 198 339
896 1532 930 1590 11 19 80 139 154 265 534 913 753 1293 809 1408 l43 87 782
0 c429 0 883 -3 1007 -7z"/>
<path d="M97228 15189 c-268 -15 -392 -51 -478 -138 -79 -79 -95 -132 -95
-316 0 -183 10 -211 133 -392 145 -212 503 -729 734 -1059 19 -27 72 -103 118
-169 46 -66 210 -300 364 -520 154 -220 310 -443 346 -495 36 -52 173 -248
305 -435 131 -187 354 -504 495 -705 249 -354 520 -739 624 -887 28 -40 115
-164 193 -275 78 -112 207 -295 287 -408 262 -370 356 -507 356 -520 0 -10
-39 -68 -226 -335 -173 -247 -726 -1031 -884 -1255 -64 -91 -158 -223 -208
-295 -50 -71 -118 -168 -151 -215 -33 -47 -109 -155 -169 -240 -59 -85 -180
-256 -267 -380 -87 -124 -217 -308 -289 -410 -71 -102 -155 -221 -186 -265
-31 -44 -182 -258 -335 -475 -153 -217 -297 -421 -319 -452 -67 -93 -216 -303
-296 -418 -41 -59 -108 -154 -149 -211 -41 -57 -191 -268 -334 -469 -143 -201
-293 -406 -334 -456 -40 -51 -82 -112 -93 -136 -29 -65 -43 -179 -37 -293 8
-140 28 -197 98 -267 90 -91 181 -111 569 -128 147 -7 599 -10 1135 -8 888 3
890 3 955 25 36 12 83 36 106 52 43 32 71 70 405 556 31 44 228 330 439 635
524 757 692 1000 758 1099 31 46 80 115 108 155 27 39 91 130 140 201 102 146
367 527 519 745 141 203 361 520 524 755 177 255 170 245 185 245 7 0 41 -41
77 -91 35 -50 78 -109 96 -133 54 -73 509 -720 661 -941 31 -44 97 -138 147
-210 50 -71 109 -155 130 -185 21 -30 102 -147 180 -260 78 -113 215 -311 305
-440 90 -129 219 -314 285 -410 124 -180 223 -322 423 -610 189 -270 355 -510
541 -779 97 -140 196 -276 221 -301 52 -54 121 -84 230 -101 96 -15 2219 -6
2310 10 154 27 237 69 289 147 43 65 56 131 56 279 -1 199 -9 217 -270 575
-78 107 -204 283 -280 390 -76 107 -166 233 -200 280 -34 47 -104 146 -157
220 -147 209 -472 666 -533 750 -53 74 -115 162 -500 705 -106 149 -237 333
-292 410 -54 77 -178 250 -273 385 -96 135 -214 301 -264 370 -49 69 -132 186
-184 260 -53 74 -150 212 -217 305 -159 223 -672 945 -709 998 -95 135 -325
460 -356 502 -20 28 -81 113 -135 190 -54 77 -121 171 -148 208 -27 37 -47 70
-44 74 4 3 28 0 54 -7 73 -18 220 -24 301 -11 89 14 149 41 199 90 44 42 397
529 868 1196 82 116 187 264 233 330 182 256 425 602 895 1270 39 55 92 129
117 165 47 65 174 246 253 359 23 33 105 151 182 261 77 110 205 294 285 409
80 114 212 304 294 422 152 217 174 249 356 514 184 269 200 309 200 506 0
306 -99 407 -443 451 -78 10 -342 13 -1117 13 -940 0 -1021 -1 -1091 -18 -90
-21 -152 -58 -201 -118 -38 -46 -146 -202 -395 -564 -83 -121 -172 -249 -196
-285 -25 -36 -106 -153 -180 -260 -130 -189 -306 -445 -534 -775 -61 -88 -135
-195 -164 -238 -30 -44 -81 -118 -114 -165 -377 -538 -950 -1402 -974 -1467
-28 -73 -42 -197 -34 -299 3 -42 2 -76 -3 -76 -5 0 -70 87 -144 192 -74 105
-171 241 -214 302 -44 61 -147 208 -230 326 -178 252 -206 291 -273 385 -27
39 -149 210 -270 380 -121 171 -332 468 -468 660 -137 193 -301 424 -365 515
-64 91 -163 230 -220 310 -99 139 -146 206 -400 565 -390 550 -392 553 -469
587 -101 46 -141 47 -1116 46 -506 0 -982 -5 -1057 -9z m2313 -237 c26 -38
157 -223 536 -757 360 -508 608 -857 762 -1075 79 -113 170 -240 200 -282 31
-43 90 -126 132 -185 106 -150 441 -624 632 -893 88 -124 192 -270 230 -325
39 -55 94 -131 122 -170 28 -38 60 -83 71 -100 19 -27 200 -283 552 -780 74
-104 167 -235 205 -290 39 -55 103 -145 142 -200 77 -107 386 -542 710 -1000
109 -154 269 -379 355 -500 86 -121 242 -339 345 -485 233 -328 434 -612 596
-840 68 -96 142 -199 163 -230 22 -30 111 -156 199 -280 88 -124 203 -286 255
-360 52 -74 123 -173 157 -220 34 -47 106 -148 160 -225 54 -77 115 -162 135
-190 20 -27 104 -144 185 -260 82 -115 180 -255 220 -310 39 -55 172 -242 295
-415 479 -675 968 -1360 1049 -1470 47 -63 116 -160 154 -215 l68 -100 -38 -7
c-21 -3 -510 -6 -1088 -7 l-1050 -1 -90 132 c-49 73 -147 213 -216 313 -69 99
-280 403 -469 675 -189 272 -414 596 -500 720 -86 124 -311 448 -500 720 -905
1304 -1595 2271 -1619 2270 -3 -1 -26 -31 -51 -68 -26 -37 -160 -231 -300
-432 -139 -201 -365 -525 -500 -720 -136 -195 -298 -429 -362 -520 -63 -91
-157 -226 -208 -300 -52 -74 -125 -180 -164 -235 -100 -145 -314 -454 -622
-900 -525 -759 -790 -1143 -965 -1395 l-177 -255 -958 0 c-907 1 -1173 6
-1204 25 -10 6 -3 19 27 55 34 38 268 364 864 1200 119 167 764 1082 1079
1530 144 204 416 591 500 710 31 44 132 188 225 320 93 132 223 317 288 410
66 94 194 276 285 405 91 129 202 287 247 350 45 63 200 284 345 490 145 206
328 467 407 578 79 112 143 208 143 213 0 6 -17 33 -38 62 -21 29 -162 228
-312 442 -389 554 -626 892 -776 1105 -72 102 -175 248 -229 325 -54 77 -214
304 -355 505 -141 201 -364 518 -495 705 -327 465 -1040 1485 -1245 1780 -522
751 -650 939 -642 947 26 26 157 31 1032 37 503 4 951 8 995 9 l80 2 26 -38z
m8264 12 c37 -13 43 -38 18 -73 -11 -14 -177 -254 -370 -532 -543 -784 -1060
-1520 -1967 -2804 -1002 -1418 -1232 -1738 -1250 -1732 -36 11 -893 1213
-1029 1444 -12 20 562 869 1694 2508 80 116 299 434 488 708 l344 498 1021 -4
c643 -2 1032 -7 1051 -13z"/>
<path d="M19388 11609 c-172 -25 -258 -134 -288 -362 -20 -150 -29 -1841 -29
-5302 0 -3628 -2 -3487 47 -3597 25 -57 83 -115 139 -140 106 -47 135 -48
1141 -48 572 0 971 4 1007 10 115 19 166 41 221 95 64 63 89 127 104 265 14
137 14 6815 0 6950 -12 111 -32 179 -70 235 -35 51 -1599 1608 -1744 1737 -60
53 -133 108 -162 122 -84 41 -229 55 -366 35z m563 -276 c131 -120 392 -376
1076 -1058 l633 -629 0 -3432 c0 -1888 -3 -3434 -7 -3436 -5 -2 -417 -2 -917
0 l-908 2 7 4093 c4 2250 8 4126 9 4167 2 41 4 141 4 223 1 81 6 147 11 147 4
0 46 -35 92 -77z"/>
<path d="M10673 9949 c-221 -23 -317 -120 -343 -347 -13 -113 -13 -1820 0
-1922 17 -127 38 -178 100 -242 45 -46 68 -60 125 -80 l70 -23 3140 -3 c2073
-2 3162 1 3206 8 116 17 169 40 225 95 67 65 91 129 105 283 15 170 6 1867
-10 1942 -30 130 -100 219 -203 258 -31 12 -102 26 -158 32 -126 12 -6134 12
-6257 -1z m6555 -1106 l-3 -898 -42 0 c-24 1 -1406 2 -3073 3 l-3030 2 0 890
0 890 2988 3 c1643 1 3026 3 3075 5 l87 2 -2 -897z"/>
<path d="M31513 9949 c-223 -24 -317 -120 -344 -352 -7 -61 -9 -402 -7 -1017
4 -844 6 -931 22 -992 32 -123 95 -189 218 -231 l63 -22 3140 -3 c2118 -2
3162 1 3207 8 202 31 289 119 317 324 7 51 11 389 11 976 0 587 -4 925 -11
976 -15 113 -44 181 -98 235 -59 59 -128 85 -261 99 -126 12 -6134 12 -6257
-1z m6555 -1106 l-3 -898 -47 0 c-27 1 -1409 2 -3073 3 l-3025 2 0 890 0 890
2988 3 c1643 1 3026 3 3075 5 l87 2 -2 -897z"/>
<path d="M10655 4770 c-116 -17 -165 -38 -225 -98 -64 -65 -84 -115 -100 -252
-6 -49 -10 -452 -10 -950 0 -868 4 -985 36 -1088 21 -65 87 -142 149 -172 106
-52 -62 -49 3735 -49 3798 0 3629 -3 3735 49 62 30 119 98 145 173 12 37 25
112 31 187 15 178 6 1846 -10 1918 -35 153 -100 225 -246 271 -45 14 -394 16
-3620 17 -1963 1 -3593 -2 -3620 -6z m7425 -1101 l0 -902 -37 7 c-21 3 -1596
6 -3500 6 l-3463 0 0 890 0 890 3438 3 c1890 1 3465 3 3500 5 l62 2 0 -901z"/>
<path d="M31495 4770 c-167 -25 -257 -88 -298 -211 -35 -104 -38 -196 -35
-1144 4 -837 6 -936 21 -993 9 -35 23 -75 31 -90 23 -43 87 -103 135 -124 108
-49 -40 -47 3726 -48 2223 0 3552 4 3589 10 125 20 165 38 226 98 64 65 84
115 100 252 13 112 13 1788 0 1900 -16 136 -36 187 -99 251 -61 60 -112 82
-233 99 -76 11 -7089 11 -7163 0z m7427 -1097 c-2 -494 -4 -898 -5 -898 -1 0
-1576 1 -3499 3 l-3498 2 0 890 0 890 3443 3 c1893 1 3469 3 3502 5 l60 2 -3
-897z"/>
</g>
</svg>
